<svg xmlns="http://www.w3.org/2000/svg" xmlns:xlink="http://www.w3.org/1999/xlink" version="1.1" x="0px" y="0px" viewBox="0 0 100 125" style="enable-background:new 0 0 100 100;" xml:space="preserve"><g><path d="M20.66309,33.04199c16.58803,0.00128,22.06132,0.00664,49.74414,0c0.55273,0,1-0.44727,1-1s-0.44727-1-1-1h-4.68164   v-5.86914c0-0.55273-0.44727-1-1-1h-6.53516c-0.55273,0-1,0.44727-1,1v5.86914h-2.63574V16.79395c0-0.55273-0.44727-1-1-1h-6.53418   c-0.55273,0-1,0.44727-1,1v14.24805h-2.63574V19.39063c0-0.55273-0.44727-1-1-1h-6.53516c-0.55273,0-1,0.44727-1,1v11.65137   h-2.63574V13.05371c0-0.55273-0.44727-1-1-1h-6.53516c-0.55273,0-1,0.44727-1,1v17.98828h-3.01563c-0.55273,0-1,0.44727-1,1   S20.11035,33.04199,20.66309,33.04199z M59.19043,26.17285h4.53516v4.86914h-4.53516V26.17285z M48.02051,17.79395h4.53418   v13.24805h-4.53418V17.79395z M36.84961,20.39063h4.53516v10.65137h-4.53516V20.39063z M25.67871,14.05371h4.53516v16.98828   h-4.53516V14.05371z"/><path d="M70.40723,41.18945h-8.32422c-0.55273,0-1,0.44727-1,1s0.44727,1,1,1h8.32422c0.55273,0,1-0.44727,1-1   S70.95996,41.18945,70.40723,41.18945z"/><path d="M55.48047,42.18945c0-0.55273-0.44727-1-1-1H20.66309c-0.55273,0-1,0.44727-1,1s0.44727,1,1,1h33.81738   C55.0332,43.18945,55.48047,42.74219,55.48047,42.18945z"/><path d="M47.9668,54.43262H20.66309c-0.55273,0-1,0.44727-1,1s0.44727,1,1,1H47.9668c0.55273,0,1-0.44727,1-1   S48.51953,54.43262,47.9668,54.43262z"/><path d="M47.9668,65.21094H20.66309c-0.55273,0-1,0.44727-1,1s0.44727,1,1,1H47.9668c0.55273,0,1-0.44727,1-1   S48.51953,65.21094,47.9668,65.21094z"/><path d="M47.9668,75.98926H20.66309c-0.55273,0-1,0.44727-1,1s0.44727,1,1,1H47.9668c0.55273,0,1-0.44727,1-1   S48.51953,75.98926,47.9668,75.98926z"/><path d="M93.75879,51.94238H77.78613V17.6582c0-0.19143-0.07384-0.45922-0.24609-0.65625L64.78223,2.34375   C64.60021,2.13517,64.25565,2,64.02832,2H18.30566c-2.76855,0-5.02148,2.25293-5.02148,5.02148v0.00586h-0.00586   c-2.76855,0-5.02148,2.25293-5.02148,5.02148v0.00488H8.25195c-2.76855,0-5.02148,2.25293-5.02148,5.02148v75.90332   C3.23047,95.74707,5.4834,98,8.25195,98h54.45996c2.76855,0,5.02051-2.25293,5.02051-5.02148v-0.00488h0.00586   c2.76855,0,5.02148-2.25293,5.02148-5.02148v-0.00488h0.00488c2.76855,0,5.02148-2.25293,5.02148-5.02148v-4.93652h15.97266   c1.66016,0,3.01074-1.35059,3.01074-3.01074V54.95313C96.76953,53.29297,95.41895,51.94238,93.75879,51.94238z M74.58984,16.6582   h-9.56152V5.67188L74.58984,16.6582z M65.73242,92.97852c0,1.66602-1.35547,3.02148-3.02051,3.02148H8.25195   c-1.66602,0-3.02148-1.35547-3.02148-3.02148V17.0752c0-1.66602,1.35547-3.02148,3.02148-3.02148h0.00488v73.89844   c0,2.76855,2.25293,5.02148,5.02148,5.02148h52.4541V92.97852z M70.75977,87.95215c0,1.66602-1.35547,3.02148-3.02148,3.02148   H13.27832c-1.66602,0-3.02148-1.35547-3.02148-3.02148V12.04883c0-1.66602,1.35547-3.02148,3.02148-3.02148h0.00586v73.89844   c0,2.76855,2.25293,5.02148,5.02148,5.02148h52.4541V87.95215z M75.78613,82.92578c0,1.66602-1.35547,3.02148-3.02148,3.02148   H18.30566c-1.66602,0-3.02148-1.35547-3.02148-3.02148V7.02148C15.28418,5.35547,16.63965,4,18.30566,4h44.72266v13.6582   c0,0.55273,0.44727,1,1,1h11.75781v33.28418H57.55176c-1.66016,0-3.01074,1.35059-3.01074,3.01074v20.02539   c0,1.66016,1.35059,3.01074,3.01074,3.01074h18.23438V82.92578z M94.76953,74.97852c0,0.55762-0.45313,1.01074-1.01074,1.01074   H57.55176c-0.55762,0-1.01074-0.45313-1.01074-1.01074V54.95313c0-0.55762,0.45313-1.01074,1.01074-1.01074h36.20703   c0.55762,0,1.01074,0.45313,1.01074,1.01074V74.97852z"/><path d="M68.25659,64.66602c0.29651-0.43896,0.44672-0.93079,0.44672-1.46191c0-0.80713-0.30634-1.46875-0.91113-1.96753   c-0.59003-0.48596-1.47168-0.73242-2.62134-0.73242h-2.81085c-0.22089,0-0.41724,0.0835-0.56647,0.2395   c-0.14923,0.1532-0.22778,0.34961-0.22778,0.56653v7.38306c0,0.2218,0.07758,0.41138,0.23071,0.56458   c0.30042,0.29932,0.82178,0.30029,1.13,0.00293c0.1571-0.15125,0.23956-0.34766,0.23956-0.5675v-2.54675h2.24634   c0.48401,0,0.84241,0.11096,1.06525,0.33081c0.24054,0.23657,0.38782,0.49585,0.45062,0.79041   c0.06775,0.32007,0.10211,0.67834,0.10211,1.06421v0.36133c0,0.22778,0.07758,0.42517,0.22485,0.57043   c0.14624,0.14624,0.34753,0.22388,0.58215,0.22388c0.21698,0,0.41138-0.07959,0.56256-0.22876l0.00201-0.00195   c0.15021-0.15125,0.22974-0.34668,0.22974-0.5636v-0.55469c0-0.57336-0.11292-1.16541-0.33582-1.7594   c-0.16687-0.44373-0.43591-0.77856-0.80212-1.00146C67.80499,65.19312,68.06024,64.95557,68.25659,64.66602z M66.60522,64.23889   c-0.3623,0.24353-0.8689,0.36719-1.50702,0.36719h-1.93219v-2.56152h1.87225c0.78546,0,1.3382,0.11389,1.64258,0.33679   c0.28369,0.20911,0.42212,0.50562,0.42212,0.90723C67.10297,63.7019,66.94,64.01306,66.60522,64.23889z"/><path d="M74.43695,61.08643c-0.08252-0.18164-0.19836-0.33289-0.34564-0.44971c-0.16199-0.12769-0.35834-0.19238-0.58411-0.19238   h-0.12079c-0.22583,0-0.42218,0.0647-0.58417,0.19238c-0.14728,0.11682-0.26312,0.26807-0.34753,0.45459l-3.07593,7.26416   c-0.05402,0.12964-0.08051,0.2395-0.08051,0.33777c0,0.2179,0.07458,0.40637,0.22186,0.56165   c0.25134,0.26208,0.70593,0.3092,1.01715,0.10205c0.13348-0.08643,0.2356-0.2052,0.30627-0.3623l0.72064-1.72693h3.76514   l0.72357,1.73572c0.06775,0.14832,0.16986,0.26709,0.30145,0.35254c0.13251,0.0874,0.28271,0.13159,0.44672,0.13159   c0.22675,0,0.42413-0.08057,0.57336-0.23364c0.14624-0.1543,0.22089-0.34277,0.22089-0.56067   c0-0.09827-0.02649-0.20813-0.08051-0.33875L74.43695,61.08643z M72.1955,65.76465l1.25177-3.01416l1.25177,3.01416H72.1955z"/><path d="M88.46271,60.62305c-0.13354,0.11182-0.22974,0.25708-0.28473,0.43286l-1.78687,5.87402l-1.79663-5.84741   c-0.05597-0.18958-0.16693-0.3457-0.32794-0.4635h-0.00098c-0.32007-0.23169-0.76282-0.23071-1.07898,0   c-0.16296,0.11682-0.27295,0.27295-0.32892,0.46045l-1.79663,5.85046l-1.78882-5.875   c-0.05499-0.17676-0.15021-0.32202-0.28473-0.43298c-0.31708-0.26208-0.79718-0.22278-1.0672,0.04626   c-0.15021,0.15015-0.22382,0.34741-0.21301,0.55762c0,0.06958,0.01471,0.15503,0.04907,0.28271l2.36707,7.27002   c0.08051,0.22388,0.20618,0.39966,0.37012,0.52051c0.33582,0.24927,0.81787,0.25415,1.16931-0.01282   c0.17676-0.13257,0.29846-0.30823,0.36035-0.51746l1.70239-5.39294l1.70239,5.38904   c0.06384,0.21411,0.18463,0.38879,0.36035,0.52136c0.17572,0.13342,0.37506,0.20129,0.59198,0.20129   c0.21503,0,0.40942-0.06287,0.57733-0.1875c0.16394-0.12183,0.28864-0.29663,0.37305-0.5293l2.3681-7.27197   c0.0304-0.11108,0.04517-0.20044,0.04517-0.26025c0.0108-0.22192-0.06189-0.41821-0.21307-0.57141   C89.25891,60.39722,88.78082,60.35889,88.46271,60.62305z"/></g></svg>