<svg xmlns="http://www.w3.org/2000/svg" xmlns:xlink="http://www.w3.org/1999/xlink" version="1.1" x="0px" y="0px" viewBox="0 0 32 40" enable-background="new 0 0 32 32" xml:space="preserve"><g><path d="M13,20c0,1.6542969,1.3457031,3,3,3s3-1.3457031,3-3s-1.3457031-3-3-3S13,18.3457031,13,20z M17,20   c0,0.5517578-0.4487305,1-1,1s-1-0.4482422-1-1s0.4487305-1,1-1S17,19.4482422,17,20z"/><path d="M18.4853516,11.8574219l5,3C23.644043,14.9521484,23.8217773,15,24,15s0.355957-0.0478516,0.5146484-0.1425781l5-3   C29.815918,11.6767578,30,11.3515625,30,11V6c0-0.3515625-0.184082-0.6767578-0.4853516-0.8574219l-5-3   c-0.3173828-0.1894531-0.7119141-0.1894531-1.0292969,0l-5,3C18.184082,5.3232422,18,5.6484375,18,6v2h-2   c-0.5522461,0-1,0.4472656-1,1v3c-0.4428711,0-0.8330078,0.2910156-0.9589844,0.7158203l-0.3959961,1.3379517l-0.7504883-1.5010376   C12.7250977,12.2138672,12.3789063,12,12,12H8v-1c0-0.5527344-0.4477539-1-1-1H3c-0.5522461,0-1,0.4472656-1,1v4   c0,0.5527344,0.4477539,1,1,1h4c0.5522461,0,1-0.4472656,1-1v-1h3.3818359l0.5493774,1.0988159l-1.6050415-0.4308472   c-0.4296875-0.1162109-0.8789063,0.0644531-1.1108398,0.4414063l-1.0668945,1.7324219   c-0.2524414,0.4101563-0.1767578,0.9423828,0.1801758,1.265625l1.375,1.2460938   C9.6791992,19.5683594,9.6665039,19.7851563,9.6665039,20s0.0126953,0.4316406,0.0371094,0.6464844l-1.375,1.2460938   c-0.3569336,0.3232422-0.4326172,0.8554688-0.1801758,1.265625L9.215332,24.890625   c0.2314453,0.3769531,0.6801758,0.5566406,1.1108398,0.4414063l1.6050415-0.4308472L11.3818359,26H8v-1   c0-0.5527344-0.4477539-1-1-1H3c-0.5522461,0-1,0.4472656-1,1v4c0,0.5527344,0.4477539,1,1,1h4c0.5522461,0,1-0.4472656,1-1v-1h4   c0.3789063,0,0.7250977-0.2138672,0.8945313-0.5527344l0.7504883-1.5010376l0.3959961,1.3379517   C14.1669922,27.7089844,14.5571289,28,15,28h2c0.4428711,0,0.8330078-0.2910156,0.9589844-0.7158203l0.3959961-1.3379517   l0.7504883,1.5010376C19.2749023,27.7861328,19.6210938,28,20,28h4v1c0,0.5527344,0.4477539,1,1,1h4c0.5522461,0,1-0.4472656,1-1   v-4c0-0.5527344-0.4477539-1-1-1h-4c-0.5522461,0-1,0.4472656-1,1v1h-3.3818359l-0.5493774-1.0988159l1.6050415,0.4308472   c0.4291992,0.1162109,0.8793945-0.0644531,1.1108398-0.4414063l1.0668945-1.7324219   c0.2524414-0.4101563,0.1767578-0.9423828-0.1801758-1.265625l-1.375-1.2460938   C22.3208008,20.4316406,22.3334961,20.2148438,22.3334961,20s-0.0126953-0.4316406-0.0371094-0.6464844l1.375-1.2460938   c0.3569336-0.3232422,0.4326172-0.8554688,0.1801758-1.265625L22.784668,15.109375   c-0.2314453-0.3769531-0.6811523-0.5585938-1.1108398-0.4414063l-1.9282227,0.5175781   c-0.3886719-0.2714844-0.809082-0.4990234-1.2568359-0.6796875l-0.5297852-1.7900391C17.8330078,12.2910156,17.4428711,12,17,12v-2   h1v1C18,11.3515625,18.184082,11.6767578,18.4853516,11.8574219z M6,14H4v-2h2V14z M6,28H4v-2h2V28z M26,26h2v2h-2V26z    M17.3759766,16.2294922c0.5683594,0.1777344,1.078125,0.4521484,1.5141602,0.8164063   c0.2490234,0.2089844,0.5844727,0.2841797,0.8999023,0.1982422l1.6826172-0.4511719l0.2402344,0.390625l-1.1635742,1.0537109   c-0.2666016,0.2412109-0.3828125,0.6074219-0.3046875,0.9580078C20.3037109,19.4619141,20.3334961,19.7324219,20.3334961,20   s-0.0297852,0.5380859-0.0888672,0.8046875c-0.078125,0.3505859,0.0380859,0.7167969,0.3046875,0.9580078l1.1635742,1.0537109   l-0.2402344,0.390625l-1.6826172-0.4511719c-0.3144531-0.0859375-0.6503906-0.0107422-0.8999023,0.1982422   c-0.4360352,0.3642578-0.9458008,0.6386719-1.5141602,0.8164063c-0.3183594,0.0986328-0.5664063,0.3505859-0.6611328,0.6699219   L16.253418,26H15.746582l-0.4614258-1.5595703c-0.0947266-0.3193359-0.3427734-0.5712891-0.6611328-0.6699219   c-0.5683594-0.1777344-1.078125-0.4521484-1.5141602-0.8164063c-0.25-0.2089844-0.5874023-0.2851563-0.8999023-0.1982422   l-1.6826172,0.4511719l-0.2402344-0.390625l1.1635742-1.0537109c0.2666016-0.2412109,0.3828125-0.6074219,0.3046875-0.9580078   C11.6962891,20.5380859,11.6665039,20.2675781,11.6665039,20s0.0297852-0.5380859,0.0888672-0.8046875   c0.078125-0.3505859-0.0380859-0.7167969-0.3046875-0.9580078l-1.1635742-1.0537109l0.2402344-0.390625l1.6826172,0.4511719   c0.3134766,0.0869141,0.6508789,0.0107422,0.8999023-0.1982422c0.4360352-0.3642578,0.9458008-0.6386719,1.5141602-0.8164063   c0.3183594-0.0986328,0.5664063-0.3505859,0.6611328-0.6699219L15.746582,14h0.5068359l0.4614258,1.5595703   C16.8095703,15.8789063,17.0576172,16.1308594,17.3759766,16.2294922z M20,7.7662354l3,1.7999878v2.6676636l-3-1.800293V7.7662354z    M25,12.2338867V9.5662231l3-1.7999878v2.6673584L25,12.2338867z M24,4.1660156L27.0561523,6L24,7.8339844L20.9438477,6   L24,4.1660156z"/></g></svg>