<svg xmlns="http://www.w3.org/2000/svg" xmlns:xlink="http://www.w3.org/1999/xlink" version="1.1" x="0px" y="0px" viewBox="0 0 66 82.5" style="enable-background:new 0 0 66 66;" xml:space="preserve"><g><path d="M48.2,29.2c0-3.5-9.7-4.4-15.4-4.4s-15.4,0.9-15.4,4.4c0,0,0,0,0,0.1c0,22.8,0,2.5,0,25.3   c0,3.5,9.7,4.4,15.4,4.4s15.4-0.9,15.4-4.4C48.2,45.7,48.2,37.9,48.2,29.2C48.2,29.2,48.2,29.2,48.2,29.2z M32.8,40.1   c-8.2,0-13-1.5-13.4-2.4v-6.1c3.3,1.6,9.7,2,13.4,2c3.6,0,9.4-0.4,12.8-1.7c0,0,0.1,0,0.1,0c0.2-0.1,0.4-0.2,0.6-0.3l0,6.1   C45.8,38.5,41,40.1,32.8,40.1z M46.2,40l0,6.1c-0.4,0.9-5.2,2.4-13.4,2.4c-8.2,0-13-1.5-13.4-2.4V40c3.1,1.5,9.3,2,13.4,2   C36.9,42.1,43.1,41.6,46.2,40z M32.8,26.8c8.1,0,12.9,1.5,13.4,2.4c0,0-0.1,0.1-0.1,0.1c0,0,0,0,0,0c-1.9,1.9-10.6,2.2-13.3,2.2   c-8.1,0-12.9-1.5-13.4-2.4C19.9,28.3,24.6,26.8,32.8,26.8z M32.8,57c-8.3,0-13.1-1.6-13.4-2.4v-6.1c3.1,1.5,9.3,2,13.4,2   c4.1,0,10.3-0.5,13.4-2l0,6.1C45.8,55.4,41,57,32.8,57z"/><path d="M63,40.9h-7l1.7-1.7c0.4-0.4,0.4-1,0-1.4c-0.4-0.4-1-0.4-1.4,0l-3.4,3.4c-0.4,0.4-0.4,1,0,1.4l3.4,3.4   c0.4,0.4,1,0.4,1.4,0c0.4-0.4,0.4-1,0-1.4L56,42.9h7c0.6,0,1-0.4,1-1v0C64,41.4,63.6,40.9,63,40.9z"/><path d="M16.2,16.3L16.2,16.3c-0.6,0-1,0.4-1,1v2.4l-5.3-5.3c-0.4-0.4-1-0.4-1.4,0c-0.4,0.4-0.4,1,0,1.4l5.3,5.3   h-2.4c-0.6,0-1,0.4-1,1v0c0,0.6,0.4,1,1,1h4.8c0.6,0,1-0.4,1-1v-4.8C17.2,16.7,16.8,16.3,16.2,16.3z"/><path d="M36.9,12.8c-0.4-0.4-1-0.4-1.4,0l-1.7,1.7V8c0-0.6-0.4-1-1-1h0c-0.6,0-1,0.4-1,1v6.4l-1.7-1.7   c-0.4-0.4-1-0.4-1.4,0c-0.4,0.4-0.4,1,0,1.4l3.4,3.4c0.2,0.2,0.5,0.3,0.7,0.3s0.5-0.1,0.7-0.3l3.4-3.4   C37.3,13.8,37.3,13.2,36.9,12.8z"/><path d="M56.7,14.7c-0.4-0.4-1-0.4-1.4,0l-4.9,4.9v-2.4c0-0.6-0.4-1-1-1h0c-0.6,0-1,0.4-1,1v4.8c0,0.6,0.4,1,1,1   h4.8c0.6,0,1-0.4,1-1v0c0-0.6-0.4-1-1-1h-2.4l4.9-4.9C57.1,15.7,57.1,15.1,56.7,14.7z"/><path d="M12.7,41.2l-3.4-3.4c-0.4-0.4-1-0.4-1.4,0c-0.4,0.4-0.4,1,0,1.4l1.7,1.7H3c-0.6,0-1,0.4-1,1v0   c0,0.6,0.4,1,1,1h6.5l-1.7,1.7c-0.4,0.4-0.4,1,0,1.4c0.4,0.4,1,0.4,1.4,0l3.4-3.4C13,42.2,13,41.6,12.7,41.2z"/></g></svg>