<svg xmlns="http://www.w3.org/2000/svg" data-name="Layer 1" viewBox="0 0 32 40" x="0px" y="0px"><path d="M14,4a1,1,0,0,0-1-1h-.46A4,4,0,0,0,8.6,6.34L7.65,12H6a1,1,0,0,0,0,2H7.31L5.43,25.33a2,2,0,0,1-2,1.67H3a1,1,0,0,0,0,2h.46A4,4,0,0,0,7.4,25.66L9.34,14H11a1,1,0,0,0,0-2H9.67l.9-5.37a2,2,0,0,1,2-1.67H13A1,1,0,0,0,14,4Z"/><path d="M24.53,11.15a1,1,0,0,0-1.38.32L21.5,14.11l-1.65-2.64a1,1,0,0,0-1.7,1.06L20.32,16l-2.17,3.47a1,1,0,0,0,.32,1.38,1,1,0,0,0,1.38-.32l1.65-2.64,1.65,2.64a1,1,0,0,0,1.38.32,1,1,0,0,0,.32-1.38L22.68,16l2.17-3.47A1,1,0,0,0,24.53,11.15Z"/><path d="M16.6,9.2a1,1,0,0,0-1.4.2,11.63,11.63,0,0,0,0,13.2,1,1,0,0,0,.8.4,1,1,0,0,0,.6-.2,1,1,0,0,0,.2-1.4,9.52,9.52,0,0,1,0-10.8A1,1,0,0,0,16.6,9.2Z"/><path d="M27.8,9.4a1,1,0,0,0-1.6,1.2,9.52,9.52,0,0,1,0,10.8,1,1,0,0,0,.2,1.4,1,1,0,0,0,.6.2,1,1,0,0,0,.8-.4A11.63,11.63,0,0,0,27.8,9.4Z"/></svg>