<svg xmlns="http://www.w3.org/2000/svg" viewBox="0 0 100 125" fill="none" x="0px" y="0px"><path fill-rule="evenodd" clip-rule="evenodd" d="M24.5 22.5C24.5 21.3262 25.4058 20.3412 26.7028 19.5439C28.028 18.7293 29.9123 18.0138 32.1965 17.4199C36.7724 16.2302 43.0667 15.5 50 15.5C56.9333 15.5 63.2276 16.2302 67.8035 17.4199C70.0877 18.0138 71.972 18.7293 73.2972 19.5439C74.5942 20.3412 75.5 21.3262 75.5 22.5V47.5H74.5V39.5433C74.1627 39.8709 73.7542 40.1751 73.2972 40.4561C71.972 41.2707 70.0877 41.9862 67.8035 42.5801C63.2276 43.7698 56.9333 44.5 50 44.5C43.0667 44.5 36.7724 43.7698 32.1965 42.5801C29.9123 41.9862 28.028 41.2707 26.7028 40.4561C26.2458 40.1751 25.8373 39.8709 25.5 39.5433V53.5C25.5 54.1211 25.9934 54.8461 27.2265 55.6041C28.4314 56.3448 30.2082 57.0299 32.4481 57.6123C36.9205 58.7751 43.1262 59.5 50 59.5C52.0578 59.5 54.0568 59.435 55.968 59.3126L56.032 60.3106C54.099 60.4344 52.0787 60.5 50 60.5C43.0667 60.5 36.7724 59.7698 32.1965 58.5801C29.9123 57.9862 28.028 57.2707 26.7028 56.4561C26.2458 56.1751 25.8373 55.8709 25.5 55.5433V69.5C25.5 70.1211 25.9934 70.8461 27.2265 71.6041C28.4314 72.3448 30.2082 73.0299 32.4481 73.6123C36.9205 74.7751 43.1262 75.5 50 75.5C52.0578 75.5 54.0568 75.435 55.968 75.3126L56.032 76.3106C54.099 76.4344 52.0787 76.5 50 76.5C43.0667 76.5 36.7724 75.7698 32.1965 74.5801C29.9123 73.9862 28.028 73.2707 26.7028 72.4561C25.4058 71.6588 24.5 70.6738 24.5 69.5V22.5ZM25.5 22.5C25.5 21.8789 25.9934 21.1539 27.2265 20.3959C28.4314 19.6552 30.2082 18.9701 32.4481 18.3877C36.9205 17.2249 43.1262 16.5 50 16.5C56.8738 16.5 63.0795 17.2249 67.5519 18.3877C69.7918 18.9701 71.5686 19.6552 72.7735 20.3959C74.0066 21.1539 74.5 21.8789 74.5 22.5C74.5 23.1211 74.0066 23.8461 72.7735 24.6041C71.5686 25.3448 69.7918 26.0299 67.5519 26.6123C63.0795 27.7751 56.8738 28.5 50 28.5C43.1262 28.5 36.9205 27.7751 32.4481 26.6123C30.2082 26.0299 28.4314 25.3448 27.2265 24.6041C25.9934 23.8461 25.5 23.1211 25.5 22.5ZM25.5 24.5433C25.8373 24.8709 26.2458 25.1751 26.7028 25.4561C28.028 26.2707 29.9123 26.9862 32.1965 27.5801C36.7724 28.7698 43.0667 29.5 50 29.5C56.9333 29.5 63.2276 28.7698 67.8035 27.5801C70.0877 26.9862 71.972 26.2707 73.2972 25.4561C73.7542 25.1751 74.1627 24.8709 74.5 24.5433V37.5C74.5 38.1211 74.0066 38.8461 72.7735 39.6041C71.5686 40.3448 69.7918 41.0299 67.5519 41.6123C63.0795 42.7751 56.8738 43.5 50 43.5C43.1262 43.5 36.9205 42.7751 32.4481 41.6123C30.2082 41.0299 28.4314 40.3448 27.2265 39.6041C25.9934 38.8461 25.5 38.1211 25.5 37.5V24.5433Z" fill="black"/><path d="M86.3 47.6L92.8333 52.5L86.3 57.4L85.7 56.6L90.5 53H60V52H90.5L85.7 48.4L86.3 47.6Z" fill="black"/><path d="M86.3 59.6L92.8333 64.5L86.3 69.4L85.7 68.6L90.5 65H60V64H90.5L85.7 60.4L86.3 59.6Z" fill="black"/><path d="M60 77H90.5L85.7 80.6L86.3 81.4L92.8333 76.5L86.3 71.6L85.7 72.4L90.5 76H60V77Z" fill="black"/></svg>