<svg xmlns="http://www.w3.org/2000/svg" xmlns:xlink="http://www.w3.org/1999/xlink" version="1.1" x="0px" y="0px" viewBox="0 0 100 125" style="enable-background:new 0 0 100 100;" xml:space="preserve"><g><path d="M92.13,69.93h-3.53c-0.14,0-0.24-0.07-0.28-0.2c-0.26-0.8-0.59-1.59-0.97-2.34c-0.06-0.12-0.04-0.25,0.05-0.34l2.5-2.5   c1.02-1.02,1.02-2.67,0-3.69l-3.46-3.46c-0.49-0.49-1.15-0.76-1.85-0.76s-1.35,0.27-1.85,0.76l-2.5,2.5   c-0.1,0.1-0.22,0.12-0.34,0.05c-0.75-0.38-1.54-0.71-2.34-0.97c-0.13-0.04-0.2-0.14-0.2-0.28v-3.53c0-1.44-1.17-2.61-2.61-2.61   h-1.29V3.72c0-0.64-0.52-1.16-1.16-1.16H6.42c-0.64,0-1.16,0.52-1.16,1.16v83.37c0,0.64,0.52,1.16,1.16,1.16H54.1   c0.13,0.33,0.32,0.63,0.58,0.88l3.46,3.46c0.49,0.49,1.15,0.76,1.85,0.76c0.7,0,1.35-0.27,1.85-0.76l2.5-2.5   c0.1-0.1,0.22-0.12,0.34-0.05c0.75,0.38,1.54,0.71,2.34,0.97c0.13,0.04,0.2,0.14,0.2,0.28v3.53c0,1.44,1.17,2.61,2.61,2.61h4.9   c1.44,0,2.61-1.17,2.61-2.61v-3.53c0-0.14,0.07-0.24,0.2-0.28c0.8-0.26,1.59-0.59,2.34-0.97c0.12-0.06,0.25-0.04,0.34,0.05l2.5,2.5   c0.49,0.49,1.15,0.76,1.85,0.76c0.7,0,1.35-0.27,1.85-0.76l3.46-3.46c1.02-1.02,1.02-2.68,0-3.69l-2.5-2.5   c-0.1-0.1-0.12-0.22-0.05-0.34c0.38-0.75,0.71-1.54,0.97-2.34c0.04-0.13,0.14-0.2,0.28-0.2h3.53c1.44,0,2.61-1.17,2.61-2.61v-4.9   C94.74,71.1,93.57,69.93,92.13,69.93z M7.58,4.88h63.55v47.66h-1.29c-1.44,0-2.61,1.17-2.61,2.61v3.53c0,0.14-0.07,0.24-0.21,0.28   c-0.8,0.26-1.59,0.59-2.34,0.97c-0.12,0.06-0.25,0.04-0.34-0.05l-2.5-2.5c-0.49-0.49-1.15-0.76-1.85-0.76   c-0.7,0-1.35,0.27-1.85,0.76l-3.46,3.46c-0.49,0.49-0.76,1.15-0.76,1.85c0,0.7,0.27,1.35,0.76,1.85l2.5,2.5   c0.1,0.1,0.12,0.22,0.05,0.34c-0.38,0.75-0.71,1.54-0.97,2.34c-0.04,0.13-0.14,0.2-0.28,0.2h-3.53c-1.44,0-2.61,1.17-2.61,2.61v4.9   c0,1.44,1.17,2.61,2.61,2.61h3.53c0.14,0,0.24,0.07,0.28,0.2c0.26,0.8,0.59,1.59,0.97,2.34c0.06,0.12,0.04,0.25-0.06,0.34l-2.5,2.5   c-0.15,0.15-0.28,0.32-0.39,0.5H7.58V4.88z M92.42,77.44c0,0.16-0.14,0.3-0.3,0.3h-3.53c-1.13,0-2.13,0.72-2.48,1.8   c-0.23,0.69-0.51,1.37-0.84,2.02c-0.51,1.01-0.32,2.23,0.48,3.03l2.5,2.5c0.11,0.11,0.11,0.31,0,0.42l-3.46,3.46   c-0.07,0.07-0.15,0.09-0.21,0.09c-0.06,0-0.14-0.01-0.21-0.09l-2.5-2.5c-0.8-0.8-2.02-0.99-3.03-0.48   c-0.65,0.33-1.33,0.61-2.02,0.84c-1.07,0.35-1.8,1.35-1.8,2.48v3.53c0,0.16-0.14,0.3-0.3,0.3h-4.9c-0.16,0-0.3-0.14-0.3-0.3v-3.53   c0-1.13-0.72-2.13-1.8-2.48c-0.69-0.23-1.37-0.51-2.02-0.84c-0.38-0.19-0.78-0.28-1.18-0.28c-0.68,0-1.34,0.26-1.85,0.77l-2.5,2.5   c-0.07,0.07-0.15,0.09-0.21,0.09c-0.06,0-0.14-0.01-0.21-0.09l-3.46-3.46c-0.07-0.07-0.09-0.15-0.09-0.21   c0-0.06,0.01-0.14,0.09-0.21l2.5-2.5c0.8-0.8,1-2.02,0.48-3.03c-0.33-0.65-0.61-1.33-0.84-2.02c-0.35-1.07-1.35-1.8-2.48-1.8h-3.53   c-0.16,0-0.3-0.14-0.3-0.3v-4.9c0-0.16,0.14-0.3,0.3-0.3h3.53c1.13,0,2.13-0.72,2.48-1.8c0.23-0.69,0.51-1.37,0.84-2.02   c0.51-1.01,0.32-2.23-0.48-3.03l-2.5-2.5c-0.07-0.07-0.09-0.15-0.09-0.21c0-0.06,0.01-0.14,0.09-0.21l3.46-3.46   c0.07-0.07,0.15-0.09,0.21-0.09c0.06,0,0.14,0.01,0.21,0.09l2.5,2.5c0.8,0.8,2.02,0.99,3.03,0.48c0.65-0.33,1.33-0.61,2.02-0.84   c1.07-0.35,1.8-1.35,1.8-2.48v-3.53c0-0.16,0.14-0.3,0.3-0.3h4.9c0.16,0,0.3,0.14,0.3,0.3v3.53c0,1.13,0.72,2.13,1.8,2.48   c0.69,0.23,1.37,0.51,2.02,0.84c1.01,0.51,2.23,0.32,3.03-0.48l2.5-2.5c0.07-0.07,0.15-0.09,0.21-0.09s0.14,0.01,0.21,0.09   l3.46,3.46c0.11,0.11,0.11,0.31,0,0.42l-2.5,2.5c-0.8,0.8-0.99,2.02-0.48,3.03c0.33,0.65,0.61,1.33,0.84,2.02   c0.35,1.07,1.35,1.8,2.48,1.8h3.53c0.16,0,0.3,0.14,0.3,0.3V77.44z M72.29,65.11c-5.45,0-9.88,4.43-9.88,9.88   c0,5.45,4.43,9.88,9.88,9.88c5.45,0,9.88-4.43,9.88-9.88C82.16,69.54,77.73,65.11,72.29,65.11z M72.29,82.55   c-4.17,0-7.56-3.39-7.56-7.56c0-4.17,3.39-7.56,7.56-7.56s7.56,3.39,7.56,7.56C79.85,79.16,76.46,82.55,72.29,82.55z M62.45,29.69   c0-0.64-0.52-1.15-1.16-1.15c-0.03,0-0.05,0-0.07,0H48.88V16.23c0-0.03,0-0.06,0-0.09c0.01-0.63-0.5-1.16-1.13-1.17l0,0   c-0.01,0-0.02,0-0.02,0c-8.12,0-14.73,6.61-14.73,14.73s6.61,14.73,14.73,14.73S62.45,37.82,62.45,29.69z M47.72,42.11   c-6.84,0-12.41-5.57-12.41-12.41c0-6.45,4.95-11.77,11.25-12.36V29.7c0,0.64,0.52,1.16,1.16,1.16h12.36   C59.49,37.16,54.17,42.11,47.72,42.11z M52.69,25.88h13.57c0.31,0,0.6-0.12,0.82-0.34c0.22-0.22,0.34-0.51,0.34-0.82   c0-8.11-6.61-14.72-14.72-14.72c0,0,0,0-0.01,0c-0.64,0-1.16,0.52-1.16,1.16v13.57C51.53,25.36,52.05,25.88,52.69,25.88z    M53.85,12.37c5.92,0.55,10.65,5.28,11.2,11.2h-11.2V12.37z M11.43,16.98c0-0.64,0.52-1.16,1.16-1.16h15.13   c0.64,0,1.16,0.52,1.16,1.16c0,0.64-0.52,1.16-1.16,1.16H12.59C11.95,18.14,11.43,17.62,11.43,16.98z M11.43,25.31   c0-0.64,0.52-1.16,1.16-1.16h15.13c0.64,0,1.16,0.52,1.16,1.16c0,0.64-0.52,1.16-1.16,1.16H12.59   C11.95,26.47,11.43,25.95,11.43,25.31z M11.43,33.64c0-0.64,0.52-1.16,1.16-1.16h15.13c0.64,0,1.16,0.52,1.16,1.16   c0,0.64-0.52,1.16-1.16,1.16H12.59C11.95,34.8,11.43,34.28,11.43,33.64z M27.72,43.12H12.59c-0.64,0-1.16-0.52-1.16-1.16   c0-0.64,0.52-1.16,1.16-1.16h15.13c0.64,0,1.16,0.52,1.16,1.16C28.87,42.61,28.36,43.12,27.72,43.12z M40.63,48.18H32   c-0.64,0-1.16,0.52-1.16,1.16v4.53h-7.48c-0.64,0-1.16,0.52-1.16,1.16v5.89h-7.48c-0.64,0-1.16,0.52-1.16,1.16v15.47   c0,0.64,0.52,1.16,1.16,1.16h8.63H32h8.63c0.64,0,1.16-0.52,1.16-1.16v-28.2C41.79,48.7,41.27,48.18,40.63,48.18z M15.89,63.23   h6.32v13.16h-6.32V63.23z M24.52,56.18h6.32v20.21h-6.32V56.18z M39.48,76.39h-6.32V50.5h6.32V76.39z"/></g></svg>