<svg xmlns="http://www.w3.org/2000/svg" data-name="Layer 1" viewBox="0 0 100 125" x="0px" y="0px"><path d="M91.03,46.03H88.075A38.288,38.288,0,0,0,53.97,11.923V8.97a3.97,3.97,0,1,0-7.94,0v2.953a38.288,38.288,0,0,0-34.1,34.107H8.97a3.97,3.97,0,1,0,0,7.94h2.956a38.284,38.284,0,0,0,34.1,34.105V91.03a3.97,3.97,0,0,0,7.94,0V88.075A38.287,38.287,0,0,0,88.075,53.97H91.03a3.97,3.97,0,0,0,0-7.94Zm-5.117,0H81.836A32.137,32.137,0,0,0,53.97,18.165V14.087A35.957,35.957,0,0,1,85.913,46.03Zm-8.732,7.94h2.484a30,30,0,0,1-25.7,25.7V77.181a3.97,3.97,0,0,0-7.94,0v2.484a30.028,30.028,0,0,1-25.7-25.7h2.485a3.97,3.97,0,0,0,0-7.94H20.334a30,30,0,0,1,25.7-25.7v2.485a3.97,3.97,0,0,0,7.94,0V20.334a29.98,29.98,0,0,1,25.7,25.7H77.181a3.97,3.97,0,0,0,0,7.94Zm-29-45a1.818,1.818,0,1,1,3.636,0V22.819a1.818,1.818,0,0,1-3.636,0ZM46.03,14.088v4.077A32.159,32.159,0,0,0,18.165,46.03H14.088A35.979,35.979,0,0,1,46.03,14.088ZM7.151,50A1.82,1.82,0,0,1,8.97,48.182H22.819a1.818,1.818,0,1,1,0,3.636H8.97A1.82,1.82,0,0,1,7.151,50Zm6.937,3.97h4.077A32.092,32.092,0,0,0,46.03,81.836v4.077A36.007,36.007,0,0,1,14.088,53.97Zm37.73,37.06a1.818,1.818,0,1,1-3.636,0V77.181a1.818,1.818,0,1,1,3.636,0Zm2.152-5.117V81.836A32.095,32.095,0,0,0,81.836,53.97h4.077A35.985,35.985,0,0,1,53.97,85.913ZM91.03,51.818H77.181a1.818,1.818,0,1,1,0-3.636H91.03a1.818,1.818,0,1,1,0,3.636ZM50,30.783A14.166,14.166,0,0,0,35.85,44.932c0,4.584,5.933,13.142,10.264,19.39,1.211,1.746,2.257,3.255,2.977,4.394a1.075,1.075,0,0,0,1.818,0c.72-1.139,1.766-2.648,2.977-4.395,4.332-6.248,10.264-14.8,10.264-19.389A14.166,14.166,0,0,0,50,30.783ZM52.118,63.1C51.33,64.232,50.611,65.27,50,66.179c-.611-.909-1.33-1.946-2.118-3.083C43.948,57.42,38,48.844,38,44.932a12,12,0,1,1,24,0C62,48.844,56.052,57.42,52.118,63.1ZM50,38.337a6.6,6.6,0,1,0,6.6,6.595A6.6,6.6,0,0,0,50,38.337Zm0,11.04a4.445,4.445,0,1,1,4.445-4.445A4.45,4.45,0,0,1,50,49.377Z"/></svg>