<svg xmlns="http://www.w3.org/2000/svg" xmlns:xlink="http://www.w3.org/1999/xlink" version="1.1" x="0px" y="0px" viewBox="0 0 100 125" enable-background="new 0 0 100 100" xml:space="preserve"><path d="M69.845,27.362c-4.268,0-8.245,1.214-11.649,3.284c-1.321-0.271-2.682-0.514-4.101-0.694l-1.728-0.195  c-2.313-0.245-4.689-0.383-7.056-0.401h-1.729c-2.27,0.02-4.551,0.144-6.771,0.371l-1.729,0.188  c-2.617,0.34-5.101,0.805-7.346,1.414l-1.729,0.506c-4.975,1.604-8.354,3.963-8.354,7.011v5.48l-1.299,0.382  C11.379,46.309,8,48.669,8,51.718v9.829c0,6.18,13.802,9.51,26.79,9.51c7.817,0,15.903-1.213,21.123-3.52  c3.839,3.032,8.672,4.857,13.931,4.857c12.415,0,22.518-10.101,22.518-22.521C92.362,37.462,82.26,27.362,69.845,27.362   M26.009,33.709l1.729-0.552c2.12-0.616,4.591-1.126,7.346-1.495l1.729-0.209c2.115-0.221,4.383-0.352,6.771-0.369h1.729  c2.493,0.018,4.863,0.156,7.056,0.4l1.728,0.219c0.72,0.097,1.37,0.229,2.054,0.342c-4.519,3.48-7.668,8.62-8.546,14.505  c-1.03,0.041-2.076,0.07-3.157,0.07c-14.771,0-25.062-4.104-25.062-7.775C19.383,37.057,21.823,35.174,26.009,33.709 M19.383,42.354  c4.078,3.908,14.809,5.994,25.062,5.994c0.984,0,1.977-0.037,2.963-0.074c-0.038,0.533-0.083,1.062-0.083,1.603  c0,2.258,0.341,4.426,0.959,6.478c-1.245,0.06-2.516,0.104-3.839,0.104c-14.771,0-25.062-4.103-25.062-7.782V42.354z M16.355,46.582  l1.299-0.415v2.508c0,6.179,13.802,9.511,26.791,9.511c1.477,0,2.963-0.051,4.438-0.14l0,0c0.003,0.007,0.003,0.013,0.006,0.019l0,0  c-3.915,0.875-8.7,1.428-14.098,1.428c-14.77,0-25.062-4.104-25.062-7.773C9.729,49.929,12.169,48.047,16.355,46.582 M34.791,69.328  c-14.77,0-25.062-4.102-25.062-7.781v-6.322c4.077,3.908,14.81,5.996,25.062,5.996c5.13,0,10.346-0.537,14.807-1.554  c1.204,2.481,2.842,4.702,4.827,6.575C49.987,68.029,43.097,69.328,34.791,69.328 M69.845,70.943  c-11.616,0-21.064-9.446-21.064-21.068c0-11.611,9.448-21.062,21.064-21.062c11.614,0,21.064,9.45,21.064,21.062  C90.91,61.497,81.459,70.943,69.845,70.943"/><path d="M69.847,49.373c-3.112,0-5.638-2.527-5.638-5.639c0-3.107,2.523-5.641,5.638-5.641c3.108,0,5.639,2.532,5.639,5.641h1.008  c0-3.497-2.714-6.366-6.144-6.624v-2.589h-1.008v2.589c-3.43,0.258-6.144,3.127-6.144,6.624c0,3.664,2.983,6.643,6.648,6.643  c3.108,0,5.639,2.534,5.639,5.646c0,3.106-2.53,5.638-5.639,5.638c-3.112,0-5.638-2.53-5.638-5.638h-1.012  c0,3.494,2.713,6.359,6.144,6.621v2.593h1.007v-2.593c3.431-0.262,6.145-3.127,6.145-6.621  C76.492,52.357,73.508,49.373,69.847,49.373"/></svg>