<svg xmlns="http://www.w3.org/2000/svg" xmlns:xlink="http://www.w3.org/1999/xlink" version="1.1" x="0px" y="0px" viewBox="0 0 48 60" style="enable-background:new 0 0 48 48;" xml:space="preserve"><g><path d="M45.5,43.6H4.4V2.5c0-1.1-0.9-2-2-2s-2,0.9-2,2v43.1c0,1.1,0.9,2,2,2h43.1c1.1,0,2-0.9,2-2S46.6,43.6,45.5,43.6z"/><path d="M9.9,19.4l1.3-1.1l1.6,1.7l-1.2,1.1c-0.8,0.7-0.9,1.9-0.2,2.8c0.4,0.5,0.9,0.7,1.5,0.7c0.5,0,0.9-0.2,1.3-0.5l1.4-1.2   l14.4,14.8c0.4,0.4,0.9,0.6,1.4,0.6c0.4,0,0.8-0.1,1.2-0.4l6.1-4.4v3.3c0,1.1,0.9,2,2,2s2-0.9,2-2v-8.1c0-1.1-0.9-2-2-2h-8.1   c-1.1,0-2,0.9-2,2s0.9,2,2,2h3.3l-4.2,3L18.6,20.3l4.5-3.9l7.5,7.5c0.7,0.7,1.8,0.8,2.6,0.1l10-8.1v3.3c0,1.1,0.9,2,2,2s2-0.9,2-2   v-8.1c0-1.1-0.9-2-2-2h-8.1c-1.1,0-2,0.9-2,2s0.9,2,2,2h3.4l-8.3,6.7l-7.6-7.6c-0.7-0.7-1.9-0.8-2.7-0.1l-6.1,5.2l-3.1-3.1   c-0.7-0.7-1.8-0.8-2.6-0.2l-2.7,2.2c-0.8,0.7-1,1.9-0.3,2.8C7.9,20,9.1,20.1,9.9,19.4z"/></g></svg>