<svg xmlns:dc="http://purl.org/dc/elements/1.1/" xmlns:cc="http://creativecommons.org/ns#" xmlns:rdf="http://www.w3.org/1999/02/22-rdf-syntax-ns#" xmlns:svg="http://www.w3.org/2000/svg" xmlns="http://www.w3.org/2000/svg" version="1.1" viewBox="0 0 99.999997 124.99999625" x="0px" y="0px"><g transform="translate(0,-952.36223)"><path d="m 50.000608,977.65851 -45.0005883,8.87176 45.0005883,13.70403 22.637145,-6.89331 c 0.04506,2.23717 -0.02074,4.64387 -0.04601,6.94171 l 0,0.906 c -0.912992,6.466 -0.68837,11.8615 -1.474696,17.3259 l -0.75622,7.9162 c 0,0 4.255678,1.9915 6.343541,-1.0783 l -1.265874,-11.2348 -0.609937,-5.1862 -0.304373,-3.0509 c -0.381472,-1.1221 -0.441265,-3.9305 -0.966221,-5.8693 l -0.0024,-6.94991 21.444417,-6.53112 -44.999412,-8.87176 z m -0.02713,6.59011 a 2.416139,0.73817909 0 0 1 2.416139,0.73853 2.416139,0.73817909 0 0 1 -0.220615,0.30673 c 0.251575,0.22603 0.549613,0.44136 1.058241,0.61702 l 18.961027,5.54249 0.01298,0.005 c 0.838877,0.32781 1.175041,1.05817 1.353177,1.59975 l -0.913132,0.27253 c -0.07147,-0.19247 -0.164001,-0.39013 -0.307912,-0.56983 -0.227335,-0.28386 -0.539132,-0.51273 -0.98982,-0.59459 l -0.01061,-10e-4 -0.01062,-0.002 c -4.571564,-1.17687 -9.687878,-2.49611 -13.936453,-3.56522 -4.248571,-1.06912 -7.654365,-1.89217 -8.714851,-2.06576 l -0.01888,-0.002 -0.01652,-0.006 c -0.47363,-0.1368 -0.79003,-0.31458 -0.933187,-0.61937 -0.07158,-0.1524 -0.07748,-0.3297 -0.03303,-0.47781 0.01715,-0.057 0.04434,-0.10779 0.07196,-0.15808 a 2.416139,0.73817909 0 0 1 -0.184041,-0.28078 2.416139,0.73817909 0 0 1 2.416139,-0.73853 z m -1.672894,1.2706 c -0.01933,0.0288 -0.04826,0.0642 -0.05309,0.0802 -0.0084,0.0281 -0.0079,0.0279 0.0012,0.0472 0.01806,0.0385 0.158818,0.18302 0.554485,0.2973 1.166771,0.19313 4.49609,1.00264 8.730188,2.06811 1.776636,0.44707 3.849731,0.98459 5.825632,1.49003 l -10.318139,-3.01546 -0.0059,-0.002 c -0.748629,-0.25749 -1.169197,-0.63105 -1.485313,-0.93909 a 2.416139,0.73817909 0 0 1 -1.576152,0.1805 2.416139,0.73817909 0 0 1 -1.672894,-0.20645 z m -19.011757,9.61618 c -1.439367,16.5496 6.557094,27.258 20.409767,31.247 l 0,-25.032 -20.409767,-6.215 z m 41.422391,0 -20.408589,6.215 0,25.032 c 13.852644,-3.989 21.848022,-14.6974 20.408589,-31.247 z" style="" fill="#000000" fill-opacity="1" fill-rule="evenodd" stroke="none"/></g></svg>