<svg xmlns="http://www.w3.org/2000/svg" xmlns:xlink="http://www.w3.org/1999/xlink" version="1.1" x="0px" y="0px" viewBox="0 0 100 125" enable-background="new 0 0 100 100" xml:space="preserve"><g><path fill-rule="evenodd" clip-rule="evenodd" d="M79.243,53.828c-0.101-0.226-0.208-0.32-0.474-0.32   c-4.106,0.011-8.212,0.007-12.318,0.008c-0.106,0-0.212,0.01-0.325,0.015v6.485h0.381c1.019,0,2.037,0.009,3.056-0.005   c0.246-0.004,0.357,0.063,0.429,0.309c0.466,1.601,0.949,3.196,1.426,4.795c0.027,0.091,0.043,0.184,0.065,0.288H26.042   c0.005-0.058,0.002-0.091,0.012-0.122c0.503-1.691,1.01-3.383,1.507-5.076c0.055-0.185,0.168-0.19,0.317-0.19   c0.834,0.004,1.668,0.002,2.502,0.002h1.011v-6.5h-0.38c-4.074,0-8.147,0.003-12.222-0.008c-0.279,0-0.412,0.08-0.526,0.339   c-2.508,5.664-5.024,11.324-7.542,16.985c-0.278,0.625-0.568,1.247-0.854,1.869h77.755C84.83,66.41,82.033,60.12,79.243,53.828z"/><path fill-rule="evenodd" clip-rule="evenodd" d="M9.867,75.345v17.118c0.142-0.004,0.283-0.01,0.421-0.01h77.58   c0.007-0.302,0.021-0.448,0.021-0.595c0-5.504-0.008-11.01-0.008-16.514H9.867z"/><path fill-rule="evenodd" clip-rule="evenodd" d="M91.263,11.595H71.616v17.118c0.036-0.004,0.071-0.01,0.106-0.01h19.536   c0.002-0.302,0.006-0.448,0.006-0.595C91.265,22.604,91.263,17.099,91.263,11.595z"/><path fill-rule="evenodd" clip-rule="evenodd" d="M63.905,37.26c-0.198,0-0.371,0.019-0.541-0.003   c-0.493-0.066-0.88,0.121-1.277,0.406c-3.692,2.657-7.396,5.298-11.098,7.943c-0.789,0.563-1.615,1.049-2.559,1.309   c-2.144,0.591-4.098-0.508-4.568-2.677c-0.46-2.121-0.064-4.09,1.387-5.778c0.329-0.381,0.664-0.758,1.036-1.181   c-4.265,0-8.46,0-12.667,0c0,8.666,0,17.313,0,25.968c10.106,0,20.185,0,30.287,0C63.905,54.59,63.905,45.95,63.905,37.26z"/><path fill-rule="evenodd" clip-rule="evenodd" d="M47.041,35.101c0.22,0.002,0.267-0.119,0.322-0.281   c0.41-1.199,0.852-2.387,1.224-3.598c0.219-0.711,0.674-1.141,1.316-1.423c1.001-0.442,2.058-0.613,3.141-0.5   c0.476,0.048,0.96,0.186,1.395,0.381c0.515,0.23,0.656,0.725,0.409,1.234c-0.13,0.268-0.311,0.523-0.51,0.747   c-2.55,2.835-5.106,5.663-7.661,8.495c-0.129,0.144-0.27,0.294-0.347,0.466c-0.453,1.021-0.586,2.085-0.305,3.172   c0.242,0.933,0.924,1.335,1.833,1.021c0.604-0.21,1.2-0.513,1.721-0.883c5.081-3.604,10.145-7.229,15.209-10.855   c0.129-0.092,0.243-0.248,0.295-0.398c0.313-0.889,0.596-1.788,0.91-2.676c0.072-0.205,0.199-0.409,0.351-0.565   c0.917-0.937,1.845-1.863,2.777-2.784c0.157-0.156,0.23-0.311,0.23-0.538c-0.007-3.023-0.004-6.045-0.005-9.068   c0-0.116-0.011-0.23-0.018-0.36c-0.124-0.007-0.221-0.017-0.315-0.017c-3.412-0.001-6.825-0.003-10.239,0.006   c-0.171,0-0.361,0.063-0.511,0.152c-2.355,1.402-4.708,2.808-7.054,4.225c-1.509,0.913-3.019,1.828-4.506,2.777   c-1.315,0.84-2.289,2-2.85,3.455c-0.556,1.444-1.035,2.917-1.537,4.383c-0.382,1.115-0.747,2.236-1.134,3.398   c0.101,0.015,0.151,0.029,0.203,0.029C43.271,35.096,45.156,35.092,47.041,35.101z"/></g></svg>