<svg xmlns="http://www.w3.org/2000/svg" xmlns:xlink="http://www.w3.org/1999/xlink" version="1.1" x="0px" y="0px" viewBox="0 0 91.333 100" enable-background="new 0 0 91.333 100" xml:space="preserve"><path d="M81.502,59.479c-14.446,17.343-29.439,7.493-34.332,3.457c3.772-4.121,5.505-6.361,12.054-11.758  c6.771,2.767,18.887-2.487,18.887-2.487c-8.151,2.136-14.382,0.925-16.595,0.339c0.475-0.371,8.516-6.191,10.95-9.557  c6.731,0.208,12.291-5.573,12.291-5.573c-0.182-0.156-3.587,2.454-10.025,2.767c6.666-9.792,6.367-18.802,6.367-18.802  s-2.461,8.223-8.724,17.239c-1.283-6.399,0.352-10.755,0.169-10.898c0,0-4.362,7.187-2.351,13.795  c-3.424,3.913-8.821,7.292-10.813,8.808c-0.156-0.41-2.239-7.239-0.215-17.324c0,0-5.488,12.682-2.051,19.257  c-4.205,3.236-5.332,4.03-12.356,11.881c-15.905-11.907-2.249-33.203,9.661-38.164C66.672,17.35,71.776,18.379,83.006,0  C95.304,18.216,93.287,45.338,81.502,59.479z"></path><path d="M13.623,57.629c7.236,3.308,12.252,7.8,15.699,12.097c0.042-0.124,0.095-0.228,0.134-0.371C36.005,45.781,0,49.062,0,49.062  s4.974,7.656,7.747,16.003c3.207,9.674,16.312,17.714,21.022,6.224C25.368,66.711,20.504,61.705,13.623,57.629z"></path><path d="M47.17,62.936c-0.042-0.053-2.487-2.24-2.448-2.292c-6.172,6.797-8.578,12.604-9.164,20.006  c-0.934-2.545-2.802-6.621-6.237-10.924c-0.163,0.566-0.352,1.074-0.553,1.562c3.659,4.928,5.075,11.641,5.908,13.841  c0,6.146,0.674,9.219,1.214,14.349c0,0,3.308,1.953,4.229-1.692C38.251,94.699,36.418,73.456,47.17,62.936z"></path></svg>