<svg xmlns="http://www.w3.org/2000/svg" xmlns:xlink="http://www.w3.org/1999/xlink" version="1.1" x="0px" y="0px" viewBox="0 0 48 60" enable-background="new 0 0 48 48" xml:space="preserve"><g><path fill="#000000" d="M44.7,23.4c-0.8-3.4-2.3-6.6-4.2-9.5c-0.4-0.6-0.8-1.2-1.3-1.7c-0.6-0.6-1.4-1.1-2.1-1.5   c-0.5-0.3-1-0.5-1.5-0.7c-0.4,0.3-0.8,0.6-1.1,0.8c-1,0.6-1.9,1.1-2.9,1.6c0.6,2.1,1.1,4.3,1.6,6.4l0.7,3.4l-3.2-1.2   c-2.8-1.1-4.9-3.3-6.5-5.4c-1,0.7-2.2,1.1-3.5,1.4c-1,0.2-2,0.3-3.3,0.3c-0.7,0-1.4,0-2.1-0.1l-2.9-0.1l1.2-2.6   c0.8-1.7,1.9-3.1,3.2-4.4c-0.9-0.5-1.7-1.1-2.5-1.8c-0.2,0-0.4,0.1-0.6,0.2c-2.6,0.9-4.5,3-6,5.3c-2.9,4.4-4.9,9.5-4.8,14.8   C2.9,35.9,7.4,43,14.1,45.6c3.4,1.3,7.1,1.4,10.7,1.4c4.5,0,9.4-0.1,12.9-3c1.8-1.5,3.1-3.5,4.2-5.6c0.9-1.5,1.7-3.1,2.3-4.7   C45.4,30.5,45.5,26.8,44.7,23.4z"/><path fill="#000000" d="M29.2,11.4c1.4-0.7,2.9-1.5,4.2-2.3c0.7-0.4,1.5-0.9,1.7-1.7c-2.7-1.1-5.8-1.5-8.7-1.2   c0.2-0.7,0.4-1.3,0.7-2c0.2-0.6,0.4-1.3,0.3-2S26.7,1,26,1c-0.7,0-1.2,0.7-1.5,1.4c-0.7,1.2-1.3,2.5-2,3.7   c-0.6-0.4-0.7-1.2-1.2-1.6c-0.3-0.2-0.6-0.3-1-0.4c-2.4-0.5-4.9-0.2-7.2,0.6C15,7,17.7,8.8,20.5,9.8c-2.3,1.2-4.2,3.2-5.3,5.6   c1.6,0.1,3.3,0.1,4.9-0.2c1.6-0.3,3.2-1.1,4.2-2.4c1.8,2.6,3.8,5.4,6.8,6.5C30.7,16.6,30,14,29.2,11.4z"/></g></svg>