<svg xmlns="http://www.w3.org/2000/svg" xmlns:xlink="http://www.w3.org/1999/xlink" version="1.1" x="0px" y="0px" viewBox="0 0 32 40" enable-background="new 0 0 32 32" xml:space="preserve"><path d="M22,2c-2.094,0-4.172,0.743-6,2.68C14.172,2.743,12.094,2,10,2c-4.109,0-8,3.297-8,8c0,1.771,0.415,3.426,1.089,5h4.251  l3.776-8.812l4.186,12.556L16.465,17h1.813c0.347-0.595,0.984-1,1.723-1c1.104,0,2,0.896,2,2s-0.896,2-2,2  c-0.738,0-1.376-0.404-1.723-1h-0.742l-2.837,4.256l-3.814-11.444L8.659,17H4.106c2.546,4.323,6.864,8.039,9.894,11.766  C14.922,29.899,15.469,30,16,30s1.078-0.101,2-1.234C22.541,23.181,30,17.625,30,10C30,5.297,26.109,2,22,2z"/></svg>