<svg xmlns="http://www.w3.org/2000/svg" xmlns:xlink="http://www.w3.org/1999/xlink" version="1.1" x="0px" y="0px" viewBox="0 0 100 125" enable-background="new 0 0 100 100" xml:space="preserve"><g><path d="M56.573,74h11.213l-2.255-5H56v-4h9v-3h-9v-3h9v-3H5v3h7v3H5v3h7v4H4.475l-2.281,5h9.924l-1.913,8.55   c-0.073,0.313,0.129,0.586,0.445,0.656c0.041,0.009,0.081-0.009,0.124-0.009c0.271,0,0.515-0.198,0.574-0.469l1.651-7.459   l2.344,5.159c0.1,0.217,0.311,0.341,0.534,0.341c0.082,0,0.162-0.015,0.241-0.05c0.293-0.135,0.423-0.482,0.288-0.775l-2.516-5.546   c-0.111-0.247-0.373-0.283-0.627-0.24L13.316,74h42.058l0.054,0.159c-0.254-0.044-0.516,0.034-0.633,0.281l-2.516,5.524   c-0.132,0.293,0,0.63,0.294,0.765c0.076,0.035,0.158,0.044,0.237,0.044c0.224,0,0.438-0.128,0.534-0.345l2.347-5.165l1.652,7.455   c0.059,0.271,0.302,0.457,0.572,0.457c0.041,0,0.082-0.003,0.123-0.012c0.317-0.07,0.511-0.301,0.446-0.614L56.573,74z M13,59h42v3   H13V59z M13,65h42v4H13V65z"/><path d="M97.675,46.348c0-8.014-3.685-14.666-8.626-16.044c-1.86-7.86-6.705-13.48-12.447-13.48   c-7.336,0-13.335,9.171-13.335,20.491C63.267,47.846,69,56.513,75,57.668V82h3V57.707c0-0.076,0.953-0.197,1.438-0.356   C81.119,60.182,83,62.1,86,62.554V82h2V62.584C94,61.777,97.675,54.818,97.675,46.348z"/></g></svg>