<svg xmlns="http://www.w3.org/2000/svg" xmlns:xlink="http://www.w3.org/1999/xlink" version="1.1" x="0px" y="0px" viewBox="0 0 100 100" enable-background="new 0 0 100 100" xml:space="preserve"><path fill="#000000" d="M45.866,67.892L27.249,47.669c-0.261-0.281-0.656-0.378-1.009-0.247c-0.359,0.126-0.604,0.454-0.625,0.832  l-1.106,19.106c-0.024,0.448,0.267,0.841,0.68,0.959c0.066,0.02,0.137,0.032,0.207,0.033l19.723,1.12  c0.382,0.022,0.74-0.189,0.905-0.536C46.188,68.587,46.125,68.176,45.866,67.892z M37.597,67.402  c-0.144,0.501-0.666,0.788-1.166,0.647c-0.499-0.144-0.789-0.664-0.644-1.165l0.546-1.9l-4.271-1.222l-0.546,1.901  c-0.145,0.5-0.665,0.79-1.163,0.646c-0.5-0.142-0.789-0.663-0.645-1.162l0.543-1.903l-3.044-0.87  c-0.5-0.143-0.789-0.664-0.645-1.164c0.142-0.5,0.663-0.789,1.163-0.646l3.046,0.87l1.198-4.18c0.144-0.499,0.666-0.788,1.164-0.646  c0.499,0.144,0.789,0.665,0.646,1.166l-1.2,4.179l4.272,1.222l0.199-0.692c0.143-0.498,0.663-0.79,1.164-0.646  c0.5,0.142,0.788,0.663,0.646,1.164L37.597,67.402z"></path><polygon fill="#000000" points="56.923,39.081 52.649,37.859 51.385,42.271 55.656,43.492 "></polygon><rect x="53.716" y="32.156" transform="matrix(0.9614 0.2751 -0.2751 0.9614 11.6376 -14.0605)" fill="#000000" width="4.444" height="4.593"></rect><polygon fill="#000000" points="55.138,45.304 50.866,44.083 49.599,48.494 53.872,49.715 "></polygon><rect x="49.421" y="24.195" transform="matrix(0.9614 0.2751 -0.2751 0.9614 9.2791 -13.184)" fill="#000000" width="4.443" height="4.589"></rect><rect x="47.637" y="30.416" transform="matrix(0.9614 0.2751 -0.2751 0.9614 10.922 -12.4526)" fill="#000000" width="4.439" height="4.592"></rect><polygon fill="#000000" points="60.493,26.632 56.221,25.411 54.954,29.822 59.229,31.045 "></polygon><polygon fill="#000000" points="66.575,28.371 62.303,27.149 61.036,31.562 65.308,32.784 "></polygon><rect x="59.798" y="33.895" transform="matrix(0.9615 0.2748 -0.2748 0.9615 12.3341 -15.651)" fill="#000000" width="4.444" height="4.592"></rect><rect x="58.014" y="40.12" transform="matrix(0.9615 0.2748 -0.2748 0.9615 13.9758 -14.9209)" fill="#000000" width="4.444" height="4.588"></rect><polygon fill="#000000" points="61.22,47.042 56.949,45.821 55.682,50.233 59.953,51.454 "></polygon><polygon fill="#000000" points="46.545,29.377 42.273,28.156 41.006,32.57 45.278,33.792 "></polygon><rect x="31.178" y="18.977" transform="matrix(0.9614 0.275 -0.275 0.9614 7.1388 -8.3656)" fill="#000000" width="4.442" height="4.59"></rect><rect x="25.096" y="17.238" transform="matrix(0.9615 0.2749 -0.2749 0.9615 6.4212 -6.7564)" fill="#000000" width="4.445" height="4.591"></rect><path fill="#000000" d="M87.384,13.699c-6.757-1.932-10.802-0.773-10.974-0.723c-0.307,0.093-0.546,0.334-0.635,0.645l-3.241,11.291  L22.403,10.577c-0.499-0.143-1.019,0.147-1.163,0.647L18.666,20.2l-2.756-2.993c-0.258-0.279-0.657-0.379-1.01-0.246  c-0.357,0.125-0.601,0.454-0.623,0.832L12.991,39.98L4.319,70.214c-0.142,0.5,0.147,1.021,0.646,1.165l6.108,1.746l-0.342,5.921  c-0.026,0.448,0.266,0.841,0.676,0.96c0.067,0.019,0.138,0.03,0.209,0.033l29.489,1.673l24.74,7.075  c10.755,3.074,12.336-2.44,13.185-5.405l14.749-51.414l2.173-7.577C97.026,20.647,94.114,15.625,87.384,13.699z M24.265,15.292  c0.143-0.499,0.664-0.789,1.164-0.646l42.57,12.172c0.498,0.145,0.789,0.666,0.645,1.165l-9.497,33.116  c-0.145,0.501-0.666,0.791-1.167,0.648c-0.498-0.145-0.787-0.666-0.645-1.165l2.099-7.317l-4.271-1.221l-1.062,3.7  c-0.145,0.5-0.664,0.791-1.163,0.647c-0.5-0.143-0.789-0.664-0.647-1.164l1.062-3.701l-5.177-1.48  c-0.5-0.143-0.789-0.663-0.645-1.164l1.525-5.318l-4.272-1.221l-0.743,2.59c-0.144,0.5-0.666,0.79-1.166,0.647  c-0.499-0.143-0.787-0.663-0.644-1.163l0.742-2.592l-5.174-1.48c-0.5-0.143-0.789-0.665-0.646-1.163l1.525-5.318l-4.273-1.223  l-0.48,1.675c-0.143,0.5-0.664,0.791-1.164,0.648c-0.501-0.143-0.789-0.665-0.645-1.165l2.265-7.901l-4.269-1.221l-1.232,4.294  c-0.143,0.5-0.664,0.791-1.165,0.648c-0.5-0.145-0.789-0.666-0.645-1.165l1.23-4.295l-4.993-1.428  c-0.067-0.004-0.129,0.003-0.193-0.015c-0.5-0.143-0.79-0.665-0.647-1.165L24.265,15.292z M11.061,68.148  c-0.141,0.499-0.663,0.788-1.163,0.646c-0.5-0.144-0.789-0.665-0.646-1.166l1.026-3.574c0.143-0.498,0.665-0.789,1.163-0.646  c0.501,0.142,0.789,0.663,0.646,1.164L11.061,68.148z M12.665,78.211l3.364-58.092l7.124,7.741l-2.105,1.879  c-0.39,0.347-0.423,0.942-0.077,1.33c0.123,0.14,0.276,0.232,0.442,0.278c0.301,0.086,0.638,0.021,0.887-0.202l2.129-1.9  l2.411,2.618l-2.118,1.89c-0.39,0.347-0.423,0.942-0.077,1.329c0.124,0.14,0.277,0.232,0.442,0.279  c0.299,0.086,0.639,0.02,0.887-0.202l2.141-1.911l2.412,2.621l-2.129,1.898c-0.389,0.347-0.422,0.943-0.077,1.331  c0.125,0.138,0.278,0.23,0.442,0.278c0.3,0.086,0.638,0.021,0.888-0.203l2.149-1.919l2.412,2.619l-2.139,1.909  c-0.39,0.345-0.423,0.942-0.076,1.329c0.122,0.14,0.276,0.231,0.441,0.279c0.301,0.086,0.636,0.021,0.887-0.203l2.161-1.93  l2.412,2.621l-2.151,1.917c-0.387,0.345-0.422,0.942-0.077,1.33c0.123,0.138,0.278,0.23,0.442,0.276  C36.413,47.486,36.75,47.422,37,47.2l2.171-1.939l2.412,2.621l-2.161,1.927c-0.389,0.347-0.421,0.942-0.076,1.331  c0.124,0.138,0.277,0.229,0.441,0.277c0.301,0.086,0.639,0.021,0.887-0.202l2.182-1.948l2.412,2.618l-2.17,1.938  c-0.388,0.346-0.422,0.941-0.077,1.329c0.123,0.14,0.278,0.23,0.442,0.278c0.301,0.085,0.638,0.021,0.887-0.202l2.194-1.957  l2.411,2.62l-2.179,1.944c-0.39,0.347-0.422,0.942-0.077,1.329c0.123,0.138,0.278,0.231,0.44,0.279  c0.301,0.085,0.639,0.02,0.888-0.204l2.202-1.963l2.41,2.618l-2.191,1.954c-0.388,0.347-0.424,0.942-0.077,1.33  c0.123,0.141,0.276,0.232,0.441,0.278c0.301,0.085,0.637,0.021,0.888-0.202l2.214-1.977l2.41,2.62l-2.2,1.965  c-0.391,0.347-0.422,0.941-0.076,1.328c0.122,0.139,0.277,0.23,0.441,0.279c0.301,0.087,0.639,0.021,0.887-0.204l2.224-1.983  l2.558,2.779l-1.304,4.55c-0.096,0.33-0.004,0.685,0.239,0.925c0.242,0.243,0.597,0.333,0.929,0.237  c0.025-0.006,1.931-0.511,5.23-0.178l7.383,8.018L12.665,78.211z M78.445,78.605c-1.243-2.459-3.916-4.753-7.981-5.915  c-4.363-1.247-7.597-1.207-9.385-1.008l16.35-57.005c1.194-0.211,4.538-0.567,9.436,0.832c6.168,1.765,7.971,5.954,7.277,8.364  L78.445,78.605z"></path><rect x="35.472" y="26.937" transform="matrix(0.9615 0.2749 -0.2749 0.9615 9.4867 -9.2342)" fill="#000000" width="4.443" height="4.593"></rect><polygon fill="#000000" points="42.249,21.416 37.976,20.194 36.71,24.605 40.985,25.827 "></polygon><polygon fill="#000000" points="48.33,23.154 44.058,21.933 42.792,26.345 47.064,27.567 "></polygon><polygon fill="#000000" points="50.84,37.341 46.57,36.12 45.303,40.532 49.574,41.753 "></polygon><rect x="39.77" y="34.903" transform="matrix(0.9615 0.2749 -0.2749 0.9615 11.841 -10.1088)" fill="#000000" width="4.443" height="4.589"></rect></svg>