<svg xmlns="http://www.w3.org/2000/svg" xmlns:xlink="http://www.w3.org/1999/xlink" version="1.1" x="0px" y="0px" viewBox="-255 347 100 125" enable-background="new -255 347 100 100" xml:space="preserve"><path fill-rule="evenodd" clip-rule="evenodd" d="M-160.6,385.2c-0.5,3.1-5.6,8-8.1,9.1c0,0,1.9,0.5-0.2,2.8l0,0.1  c0,0-17.7,10-35.5,10c-17.7,0-35.5-10-35.5-10l0,0c-2-2.3-0.2-2.8-0.2-2.8c-2.4-1.1-7.6-6.1-8.1-9.1c-0.5-3.1-0.7-5.8,7.1-10.1  c7.7-4.3,10-5.6,22.2-10.9c11.9-5.1,14.4-4.6,14.4-4.6s2.6-0.5,14.5,4.6c12.2,5.3,14.5,6.6,22.2,10.9  C-159.9,379.5-160.1,382.2-160.6,385.2z M-196,370.2c-3.9,3.9-8.3-1.8-8.3-1.8s-4.4,5.8-8.3,1.9l-3.2,5.4c0,0,3.5,1.1,2,5.4  c-1.6,4.3-1.3,8.6,0,10.4c1.3,1.8,5.6,4.9,6.7,5.6c1.1,0.7,2.3,1.6,2.7,2.1c0.4-0.4,1.6-1.4,2.8-2.2c1.1-0.7,5.5-3.9,6.7-5.6  c1.3-1.8,1.6-6.1,0-10.4s2-5.4,2-5.4L-196,370.2z M-239.1,403.4l0-0.3c0,0,17.4,10,34.8,10c17.4,0,34.9-10,34.9-10l0,0.2  c0,0,1.6,0.5,0,2.3c0,0,7.9,8.1,1.8,14.2c-6.1,6.1-21.9,14.6-36.7,14.8c0,0,0,0,0,0c-14.8-0.3-30.4-8.6-36.6-14.7  c-6.1-6.1,1.8-14.2,1.8-14.2C-240.7,403.9-239.1,403.4-239.1,403.4z"/></svg>