<svg xmlns="http://www.w3.org/2000/svg" xmlns:xlink="http://www.w3.org/1999/xlink" version="1.1" x="0px" y="0px" viewBox="0 0 32 40" enable-background="new 0 0 32 32" xml:space="preserve"><path d="M25.781,21.382c0.69-0.691,0.607-4.311,0.607-4.311c0-2.21-0.663-10.334-1.602-12.103c-0.94-1.768-6.19-3.26-8.787-3.26s-7.847,1.492-8.786,3.26c-0.939,1.769-1.603,9.893-1.603,12.103c0,0-0.083,3.619,0.607,4.311c0.455,0.455,2.205,1.581,3.663,2.423l-3.744,6.486h2.31l0.673-1.166h13.759l0.673,1.166h2.311l-3.744-6.486C23.576,22.963,25.326,21.837,25.781,21.382zM23.819,16.795c-0.473,0-0.856-0.384-0.856-0.856s0.384-0.856,0.856-0.856c0.474,0,0.856,0.384,0.856,0.856S24.293,16.795,23.819,16.795zM20.421,6.959h3.768c0.326,1.565,0.616,3.98,0.807,6.134h-4.574V6.959zM14.417,3.125h3.166v1.333h-3.166V3.125zM7.812,6.959h3.768v6.134H7.005C7.195,10.939,7.485,8.524,7.812,6.959zM8.181,16.795c-0.474,0-0.856-0.384-0.856-0.856s0.383-0.856,0.856-0.856c0.473,0,0.856,0.384,0.856,0.856S8.653,16.795,8.181,16.795zM9.341,15.938c0-0.473,0.384-0.856,0.856-0.856c0.474,0,0.856,0.384,0.856,0.856s-0.383,0.856-0.856,0.856C9.725,16.795,9.341,16.411,9.341,15.938zM10.275,27.125l0.99-1.715h9.469l0.99,1.715H10.275zM20.946,15.938c0-0.473,0.383-0.856,0.856-0.856c0.473,0,0.856,0.384,0.856,0.856s-0.384,0.856-0.856,0.856C21.329,16.795,20.946,16.411,20.946,15.938z"/></svg>