
<svg xmlns="http://www.w3.org/2000/svg" fill-rule="evenodd" stroke-miterlimit="1.41" viewBox="0 0 600 317" clip-rule="evenodd" stroke-linejoin="round">
  <g fill="#1a1a18" font-family="'ArialMT', 'Arial', sans-serif" font-size="7.91">
    <text x="7.63" y="68.29" transform="scale(3.8485)">
      Euroopa Liit Euroopa
    </text>
    <text x="23.02" y="76.36" transform="scale(3.8485)">
      Sotsiaalfond
    </text>
  </g>
  <g fill="#1a1a18" font-family="'ArialMT', 'Arial', sans-serif" font-size="7.91">
    <text x="103.72" y="68.31" transform="scale(3.8485)">
      Eesti tuleviku
    </text>
    <text x="116.47" y="76.35" transform="scale(3.8485)">
      heaks
    </text>
  </g>
  <g id="euFlag">
    <path fill="#124094" d="M21.8 21.1h299.9v200.6H21.8z"/>
    <g fill="#ffed00">
      <path id="Star" d="M241.15 116.75 h8.62 l-6.94 5.22 2.7 8.3-6.93-5.1-6.95 5.08 2.73-8.28-7.03-5.22 h8.62 l2.63-8.08 2.55 8.08z"/>
      <path id="Star1" d="M231.98 83.67 h8.63l-6.94 5.22 2.7 8.28-6.92-5.1-6.95 5.1 2.7-8.3-7.02-5.2h8.63l2.64-8.1 2.54 8.1z"/>
      <path id="Star2" d="M207.42 59.1 h8.63l-6.95 5.22 2.7 8.28-6.93-5.08-6.95 5.08 2.73-8.28-7.03-5.22h8.63l2.62-8.08 2.55 8.08z"/>
      <path id="Star3" d="M173.95 50.3 h8.63l-6.95 5.23 2.7 8.3-6.93-5.1-6.94 5.1 2.72-8.3-7.03-5.22h8.63l2.63-8.06 2.55 8.07z"/>
      <path id="Star4" d="M140.23 59.2 h8.62l-6.94 5.22 2.7 8.28-6.92-5.08-6.95 5.08 2.73-8.28-7.03-5.22h8.63l2.62-8.08 2.55 8.08z"/>
      <path id="Star5" d="M116.34 83.75 h8.62l-6.94 5.22 2.7 8.3-6.93-5.1-6.96 5.1 2.73-8.3-7.03-5.22h8.62l2.63-8.07 2.54 8.07z"/>
      <path id="Star6" d="M107.46 116.85 h8.63l-6.96 5.22 2.7 8.3-6.92-5.1-6.95 5.1 2.72-8.3-7.04-5.22h8.63l2.62-8.07 2.54 8.07z"/>
      <path id="Star7" d="M116.34 150.97 h8.62l-6.94 5.22 2.7 8.28-6.93-5.1-6.96 5.1 2.73-8.3-7.03-5.2h8.62l2.63-8.08 2.54 8.07z"/>
      <path id="Star8" d="M140.56 175.2 h8.62l-6.94 5.22 2.7 8.3-6.93-5.1-6.94 5.1 2.73-8.3-7.04-5.22h8.62l2.63-8.07 2.56 8.07z"/>
      <path id="Star9" d="M174.33 184 h8.63l-6.95 5.22 2.72 8.3-6.94-5.1-6.95 5.1 2.73-8.3-7.03-5.22h8.63l2.62-8.08 2.55 8.08z"/>
      <path id="Star10" d="M207.44 175.2 h8.62l-6.94 5.22 2.7 8.3-6.93-5.1-6.96 5.1 2.73-8.3-7.03-5.22h8.63l2.62-8.07 2.54 8.07z"/>
      <path id="Star11" d="M231.98 150.9 h8.63l-6.94 5.2 2.7 8.3-6.92-5.1-6.95 5.1 2.7-8.3-7.02-5.2h8.63l2.64-8.1 2.54 8.1z"/>
    </g>
  </g>
  <g id="estFlag">
    <path fill="#0076be" d="M398.2 82.75c38.23-24.05 98.9-35.04 155.44.7-37.23-56.4-132.58-90.4-210.03-30.68 21.44 4.26 40.28 15.02 54.62 29.98z"/>
    <path d="M427.3 153.55c0-42.26-29.09-70.8-29.09-70.8.02 0 31.96-22.4 77.93-22.4 45.3 0 77.5 23.07 77.5 23.07s25.83 34.95 25.83 78.76c0 24.77-5.02 38.46-5.02 38.46s-21.66 9.63-36.05 13.88c13.7-6.82 19.73-12.66 19.73-12.66s-18.97-2.73-42.88-2.73c-68 0-123.05 33.4-123.05 33.4s35.1-26.33 35.1-78.98z"/>
    <path fill="#fff" d="M576.38 151.56c-25.53-20.06-82.56-34.66-135.76-12.45 3.7 40.86-16.9 72.77-41.4 89.38 31.3-18.03 94.38-47.3 174.38-28.24 5.27-26.54 3.43-44.1 2.78-48.68"/>
  </g>
</svg>
